<svg xmlns="http://www.w3.org/2000/svg" viewBox="0 0 100 100">
  <defs>
    <linearGradient id="comodoGrad" x1="0%" y1="0%" x2="100%" y2="100%">
      <stop offset="0%" style="stop-color:#00A651;stop-opacity:1" />
      <stop offset="100%" style="stop-color:#006837;stop-opacity:1" />
    </linearGradient>
  </defs>
  <circle cx="50" cy="50" r="45" fill="url(#comodoGrad)"/>
  <path d="M50 20 C35 20 25 32 25 45 C25 58 35 70 50 70 C65 70 75 58 75 45 C75 32 65 20 50 20 Z M50 60 C40 60 35 52 35 45 C35 38 40 30 50 30 C60 30 65 38 65 45 C65 52 60 60 50 60 Z" fill="white"/>
  <path d="M50 35 L50 55 M40 45 L60 45" stroke="white" stroke-width="4" stroke-linecap="round"/>
  <path d="M30 75 Q50 85 70 75" stroke="white" stroke-width="3" fill="none" stroke-linecap="round"/>
</svg>





